# xmcd
#
# Track frame offsets:
#	225
#	18903
#	34242
#	48476
#	66123
#	79368
#	93060
#	108347
#	125298
#	136606
#	153562
#	175046
#	191857
#	206175
#	220732
#	236749
#	250242
#
# Disc length: 3543 seconds
#
# Revision: 1
# Processed by: cddbd v1.4PL0 Copyright (c) Steve Scherf et al.
# Submitted via: audiograbber 1.82.02
#
DISCID=ea0dd411
DTITLE=Rick Shea - The Buffalo Show
DYEAR=1995
DGENRE=Country
TTITLE0=The Rattlesnake Daddy's Daughter
TTITLE1=If Leavin' Was A Fast Train
TTITLE2=Sycamore Grove
TTITLE3=One More Night
TTITLE4=When We Were In Love
TTITLE5=Por Que Te Vas
TTITLE6=Georgia Pines
TTITLE7=Cradle Me
TTITLE8=A Matter Of Time
TTITLE9=Que Mas Quieres
TTITLE10=Texas Lawyer
TTITLE11=Border Town Girl
TTITLE12=A Long Time Ago
TTITLE13=No Quiero Despertar
TTITLE14=Potter's Grave
TTITLE15=Picture Perfect World
TTITLE16=The Words Of A Song
EXTD=
EXTT0=
EXTT1=
EXTT2=
EXTT3=
EXTT4=
EXTT5=
EXTT6=
EXTT7=
EXTT8=
EXTT9=
EXTT10=
EXTT11=
EXTT12=
EXTT13=
EXTT14=
EXTT15=
EXTT16=
PLAYORDER=
